<?xml version="1.0" encoding="UTF-8"?>

<svg xmlns="http://www.w3.org/2000/svg" viewBox="0 0 85.6 85.6" fill="#ea5f28">
  <rect x="73.4" y="36.7" width="12.2" height="12.2"></rect>
  <rect x="61.1" y="61.2" width="12.2" height="12.2"></rect>
  <rect x="61.1" y="36.7" width="12.2" height="12.2"></rect>
  <rect x="61.1" y="12.2" width="12.2" height="12.2"></rect>
  <rect x="48.9" y="48.9" width="12.2" height="12.2"></rect>
  <rect x="48.9" y="36.7" width="12.2" height="12.2"></rect>
  <rect x="48.9" y="24.5" width="12.2" height="12.2"></rect>
  <rect x="36.7" y="73.4" width="12.2" height="12.2"></rect>
  <rect x="36.7" y="61.2" width="12.2" height="12.2"></rect>
  <rect x="36.7" y="48.9" width="12.2" height="12.2"></rect>
  <rect x="36.7" y="36.7" width="12.2" height="12.2"></rect>
  <rect x="36.7" y="24.5" width="12.2" height="12.2"></rect>
  <rect x="36.7" y="12.2" width="12.2" height="12.2"></rect>
  <rect x="36.7" y="0" width="12.2" height="12.2"></rect>
  <rect x="24.4" y="48.9" width="12.2" height="12.2"></rect>
  <rect x="24.4" y="36.7" width="12.2" height="12.2"></rect>
  <rect x="24.4" y="24.5" width="12.2" height="12.2"></rect>
  <rect x="12.2" y="61.2" width="12.2" height="12.2"></rect>
  <rect x="12.2" y="36.7" width="12.2" height="12.2"></rect>
  <rect x="12.2" y="12.2" width="12.2" height="12.2"></rect>
  <rect x="0" y="36.7" width="12.2" height="12.2"></rect>
</svg>